<?xml version="1.0" encoding="UTF-8"?>
<svg width="272px" height="476px" viewBox="0 0 272 476" version="1.1" xmlns="http://www.w3.org/2000/svg" xmlns:xlink="http://www.w3.org/1999/xlink">
    <!-- Generator: Sketch 61.2 (89653) - https://sketch.com -->
    <title>scroll-left</title>
    <desc>Created with Sketch.</desc>
    <g id="Page-1" stroke="none" stroke-width="1" fill="none" fill-rule="evenodd">
        <g id="scroll-left" transform="translate(136.000000, 238.000000) scale(-1, 1) translate(-136.000000, -238.000000) " fill="#FFFFFF" fill-rule="nonzero">
            <path d="M180.979,238 L180.979,238 L180.979,238 L3.326,52.91 C-1.137,48.342 -1.03,40.799 3.538,36.123 L35.308,3.611 C39.876,-1.065 47.314,-1.171 51.777,3.398 L268.742,229.394 C271.079,231.73 272.14,234.917 271.93,237.999 C272.036,241.187 270.975,244.268 268.742,246.605 L51.776,472.602 C47.313,477.171 39.876,477.066 35.307,472.39 L3.537,439.877 C-1.031,435.202 -1.138,427.658 3.325,423.09 L180.979,238 Z" id="Path"></path>
        </g>
    </g>
</svg>