<?xml version="1.0" encoding="utf-8"?>
<!-- Generator: Adobe Illustrator 16.0.0, SVG Export Plug-In . SVG Version: 6.00 Build 0)  -->
<!DOCTYPE svg PUBLIC "-//W3C//DTD SVG 1.1//EN" "http://www.w3.org/Graphics/SVG/1.1/DTD/svg11.dtd">
<svg version="1.1" id="Eye_Icon" xmlns="http://www.w3.org/2000/svg" xmlns:xlink="http://www.w3.org/1999/xlink" x="0px" y="0px"
	 width="500px" height="500px" viewBox="0 0 500 500" enable-background="new 0 0 500 500" xml:space="preserve">
<g id="icon">
	<path id="base_1_" fill="#FFFFFF" d="M242.279,13.396c5.134,0,10.268,0,15.402,0c0.271,0.051,0.541,0.138,0.813,0.146
		c10.064,0.342,20.062,1.343,30.002,2.964c22.807,3.721,44.594,10.65,65.339,20.813c25.899,12.687,48.733,29.549,68.505,50.553
		c16.608,17.644,30.231,37.349,40.755,59.174c17.199,35.669,24.835,73.327,23.299,112.871c-0.549,14.128-2.327,28.104-5.474,41.884
		c-10.667,46.727-33.4,86.648-68.004,119.771c-18.209,17.432-38.792,31.488-61.575,42.29
		c-29.385,13.932-60.361,21.415-92.843,22.585c-18.169,0.654-36.199-0.736-54.059-4.236c-20.551-4.027-40.227-10.635-58.996-19.911
		c-25.67-12.688-48.32-29.471-67.92-50.349c-21.013-22.382-37.112-47.877-48.216-76.502c-8.86-22.841-14.012-46.501-15.448-70.964
		c-0.134-2.274-0.299-4.547-0.448-6.821c0-5.134,0-10.268,0-15.401c0.052-0.354,0.137-0.705,0.149-1.06
		c0.421-11.39,1.646-22.689,3.686-33.904c4.299-23.621,12.029-46.061,23.214-67.298c14.35-27.241,33.286-50.825,56.792-70.711
		c23.972-20.278,50.924-35.224,80.836-44.781c18.71-5.979,37.88-9.545,57.497-10.669C237.818,13.712,240.048,13.544,242.279,13.396z
		 M387.043,401.671c61.053-54.253,85.98-144.863,52.756-227.963c-32.583-81.492-117.439-138.688-215.703-126.6
		C134.519,58.127,60.85,128.953,47.691,219.996c-4.887,33.816-1.757,66.902,9.767,99.104c11.518,32.184,30.209,59.579,55.566,82.74
		c0.12-0.586,0.19-0.894,0.247-1.204c0.769-4.174,1.329-8.397,2.334-12.512c7.904-32.362,25.41-58.408,52.266-78
		c25.352-18.495,53.928-27.114,85.29-26.562c8.962,0.158,17.832,1.156,26.577,3.09c29.048,6.426,53.701,20.537,73.69,42.6
		c15.653,17.277,26.081,37.342,31.27,60.086C385.623,393.393,386.26,397.512,387.043,401.671z"/>
	<path id="head" fill-rule="evenodd" clip-rule="evenodd" fill="#FFFFFF" d="M251.503,266.358
		c-23.841-0.415-43.102-8.096-58.854-23.905c-12.264-12.309-19.734-27.174-21.834-44.475c-2.984-24.582,4.187-45.981,21.262-63.861
		c12.91-13.519,28.857-21.462,47.415-23.715c25.069-3.043,47.171,3.88,65.746,21.051c13.442,12.425,21.581,27.884,23.897,46.099
		c3.196,25.139-4.254,46.925-21.908,65.015c-12.396,12.701-27.643,20.191-45.216,22.785
		C258.018,265.941,253.965,266.13,251.503,266.358z"/>
</g>
</svg>
